<svg fill="#000000" version="1.1" id="Capa_1" xmlns="http://www.w3.org/2000/svg" xmlns:xlink="http://www.w3.org/1999/xlink" viewBox="0 0 961.945 961.945" xml:space="preserve"><g id="SVGRepo_bgCarrier" stroke-width="0"></g><g id="SVGRepo_tracerCarrier" stroke-linecap="round" stroke-linejoin="round"></g><g id="SVGRepo_iconCarrier"> <g> <g> <path d="M138.822,954.899c0,5.5,4.2,8.301,9.3,6.301l324.2-129.9c5.1-2.1,13.4-2.1,18.599,0l322.9,130c5.1,2,9.301-0.8,9.301-6.3 V297.7H138.822V954.899z M515.922,401.6c28.201-30.2,65.301-45.3,111.301-45.3c40.1,0,72.799,11.9,97.799,35.6 c14.9,14,26.102,34.2,33.602,60.4L693.021,468c-3.898-17-12-30.4-24.299-40.3c-12.301-9.9-27.301-14.801-44.9-14.801 c-24.301,0-44.1,8.7-59.199,26.2c-15.102,17.5-22.701,45.7-22.701,84.8c0,41.5,7.5,71,22.4,88.601 c14.9,17.6,34.301,26.399,58.199,26.399c17.602,0,32.801-5.6,45.4-16.8c12.701-11.2,21.801-28.8,27.301-52.8l64.199,20.4 c-9.799,35.8-26.199,62.399-49.1,79.8c-22.9,17.399-52,26.1-87.199,26.1c-43.602,0-79.4-14.899-107.5-44.7 c-28.102-29.8-42.101-70.5-42.101-122.1C473.623,474.2,487.723,431.8,515.922,401.6z M205.623,361.9h225v55.5h-158.7v77.7h137 v55.5h-137v139.5h-66.3V361.9z"></path> <path d="M849.123,213.2h-48.701l-256-133.2c1.201-4.9,1.9-10.1,1.9-15.4c0-35.6-29-64.6-64.6-64.6c-35.6,0-64.6,29-64.6,64.6 c0,5.4,0.7,10.7,2,15.8l-258,132.8h-48.3c-15.8,0-28.5,12.8-28.5,28.5c0,15.7,12.8,28.5,28.5,28.5h736.301 c15.799,0,28.5-12.8,28.5-28.5C877.623,226,864.922,213.2,849.123,213.2z M481.623,29.9c19.1,0,34.6,15.5,34.6,34.6 c0,0.3,0,0.6,0,0.9c-0.301,10.9-5.6,20.5-13.701,26.7c-5.799,4.4-13,7-20.899,7c-7.8,0-14.9-2.6-20.7-6.9 c-8.2-6.1-13.5-15.7-13.9-26.6c0-0.4,0-0.7,0-1.1C447.022,45.5,462.522,29.9,481.623,29.9z M226.022,213.2l206.9-106.3 c11.9,13.6,29.3,22.3,48.8,22.3c19.6,0,37.1-8.8,49-22.6l204.199,106.6H226.022z"></path> </g> </g> </g></svg>